<?xml version="1.0" encoding="utf-8"?>
<svg version="1.1" xmlns:xlink="http://www.w3.org/1999/xlink" width="182px" height="179px" xmlns="http://www.w3.org/2000/svg">
  <g transform="matrix(1 0 0 1 -1284 -181 )">
    <path d="M 181.8333333984375 65  L 136.8333333984375 1  L 46.8333333984375 1  L 0.16666660156249868 64.1666666015625  L 92.6666666015625 178.3333333984375  L 181.8333333984375 65  Z M 133.49999999999997 56.6666666015625  C 136.8333333984375 58.33333320312501  137.6666666015625 62.5  135.1666666015625 65.8333333984375  L 96.8333333984375 121.66666660156251  C 96 123.33333320312501  93.49999999999999 124.16666660156248  91 124.16666660156248  C 88.5 124.16666660156248  86.8333333984375 123.33333320312501  85.1666666015625 121.66666660156251  L 46.8333333984375 66.66666660156251  C 44.333333398437496 63.33333320312501  45.166666796875 59.16666660156251  48.50000000000001 57.50000000000001  C 51.8333333984375 55  56 55.8333333984375  57.66666660156251 59.16666660156251  L 91.83333339843752 106.66666660156251  L 124.3333333984375 58.3333333984375  C 126 55  130.166666796875 54.166666796875006  133.49999999999997 56.6666666015625  Z " fill-rule="nonzero" fill="#999999" stroke="none" transform="matrix(1 0 0 1 1284 181 )" />
  </g>
</svg>