<?xml version="1.0" encoding="utf-8"?>
<svg version="1.1" xmlns:xlink="http://www.w3.org/1999/xlink" width="13px" height="13px" xmlns="http://www.w3.org/2000/svg">
  <g transform="matrix(1 0 0 1 -1778 -282 )">
    <path d="M 1.0833333333333333 4.333333333333333  C 1.0833333333333333 4.6324875728250134  0.8408209061583463 4.875  0.5416666666666666 4.875  C 0.24251242717498708 4.875  0 4.6324875728250134  0 4.333333333333333  L 0 2.1666666666666665  C 0.0009334612863537947 0.9704365743720046  0.9704365743720046 0.0009334612863537947  2.1666666666666665 0  L 4.333333333333333 0  C 4.6324875728250134 0  4.875 0.24251242717498708  4.875 0.5416666666666666  C 4.875 0.8408209061583463  4.6324875728250134 1.0833333333333333  4.333333333333333 1.0833333333333333  L 2.1666666666666665 1.0833333333333333  C 1.5687446893836354 1.0842654035849848  1.0842654035849848 1.5687446893836354  1.0833333333333333 2.1666666666666665  L 1.0833333333333333 4.333333333333333  Z M 4.333333333333333 13  L 2.1666666666666665 12.999999999999996  C 0.9704365743720064 12.999066538713645  0.000933461286352871 12.029563425627993  0 10.833333333333334  L 0 8.666666666666666  C 0 8.367512427174987  0.24251242717498708 8.125  0.5416666666666666 8.125  C 0.8408209061583463 8.125  1.0833333333333333 8.367512427174987  1.0833333333333333 8.666666666666666  L 1.0833333333333333 10.833333333333334  C 1.0842654035849855 11.431255310616365  1.5687446893836359 11.915734596415014  2.1666666666666665 11.916666666666666  L 4.333333333333333 11.916666666666666  C 4.6324875728250134 11.916666666666666  4.875 12.159179093841654  4.875 12.458333333333334  C 4.875 12.757487572825013  4.6324875728250134 13  4.333333333333333 13  Z M 12.999999999999996 10.83333333333333  C 12.999066538713645 12.029563425627993  12.029563425627993 12.999066538713645  10.833333333333334 13  L 8.666666666666666 13  C 8.367512427174987 13  8.125 12.757487572825013  8.125 12.458333333333334  C 8.125 12.159179093841654  8.367512427174987 11.916666666666666  8.666666666666666 11.916666666666666  L 10.833333333333334 11.916666666666664  C 11.431255310616365 11.915734596415014  11.915734596415014 11.431255310616365  11.916666666666666 10.833333333333334  L 11.916666666666666 8.666666666666666  C 11.916666666666666 8.367512427174987  12.159179093841654 8.125  12.458333333333334 8.125  C 12.757487572825013 8.125  13 8.367512427174987  13 8.666666666666666  L 12.999999999999996 10.83333333333333  Z M 13 4.333333333333333  C 13 4.6324875728250134  12.757487572825013 4.875  12.458333333333334 4.875  C 12.159179093841654 4.875  11.916666666666666 4.6324875728250134  11.916666666666666 4.333333333333333  L 11.916666666666664 2.1666666666666665  C 11.915734596415014 1.5687446893836348  11.431255310616365 1.0842654035849855  10.833333333333334 1.0833333333333333  L 8.666666666666666 1.0833333333333333  C 8.367512427174987 1.0833333333333333  8.125 0.8408209061583463  8.125 0.5416666666666666  C 8.125 0.24251242717498708  8.367512427174987 0  8.666666666666666 0  L 10.83333333333333 0  C 12.029563425627995 0.000933461286352871  12.999066538713645 0.9704365743720046  13 2.1666666666666665  L 13 4.333333333333333  Z M 11.375 7.041666666666666  L 1.625 7.041666666666666  C 1.3258457605083205 7.041666666666666  1.0833333333333333 6.79915423949168  1.0833333333333333 6.5  C 1.0833333333333333 6.2008457605083205  1.3258457605083205 5.958333333333333  1.625 5.958333333333333  L 11.375 5.958333333333333  C 11.67415423949168 5.958333333333333  11.916666666666666 6.2008457605083205  11.916666666666666 6.5  C 11.916666666666666 6.79915423949168  11.67415423949168 7.041666666666666  11.375 7.041666666666666  Z " fill-rule="nonzero" fill="#0079fe" stroke="none" transform="matrix(1 0 0 1 1778 282 )" />
  </g>
</svg>